<svg width="4.23mm" height="4.23mm" version="1.1" viewBox="0 0 4.23 4.23" xmlns="http://www.w3.org/2000/svg"><g stroke-linecap="round" stroke-linejoin="round" stroke-width=".7063"><path d="m0.629 1.42c-0.229 0.47-0.225 1.04 0.062 1.52 0.285 0.5 0.769 0.79 1.299 0.82z" fill="#006680"/><path d="m1.18 0.757c-0.16 0.115-0.297 0.242-0.401 0.403l1.501 2.6c0.19 0 0.37-0.11 0.56-0.15z" fill="#08a"/><path d="m1.96 0.474c-0.19 0.02-0.37 0.071-0.54 0.155l1.64 2.841c0.16-0.1 0.3-0.24 0.41-0.39z" fill="#0cf"/><path d="m3.55 1.29c-0.27-0.481-0.77-0.774-1.29-0.817l1.35 2.357c0.22-0.48 0.22-1.04-0.06-1.54z" fill="#5df"/></g></svg>
